<?xml version="1.0" encoding="iso-8859-1"?>
<!-- Uploaded to: SVG Repo, www.svgrepo.com, Generator: SVG Repo Mixer Tools -->
<svg fill="#000000" height="800px" width="800px" version="1.1" id="Layer_1" xmlns="http://www.w3.org/2000/svg" xmlns:xlink="http://www.w3.org/1999/xlink" 
	 viewBox="0 0 512.076 512.076" xml:space="preserve">
<g>
	<g>
		<path d="M372.038,88.076h-368c-2.208,0-4,1.788-4,4v371.988c0,26.024,22.912,48.012,50.028,48.012h280.12
			c25.712,0,45.852-21.088,45.852-48.012V92.076C376.038,89.864,374.246,88.076,372.038,88.076z M368.038,464.064
			c0,22.436-16.628,40.012-37.852,40.012H50.066c-22.388,0-42.028-18.696-42.028-40.012V96.076h360V464.064z"/>
	</g>
</g>
<g>
	<g>
		<path d="M352.038,88.076c-2.208,0-4,1.788-4,4v371.988c0,11.596-7.508,20.012-17.852,20.012H50.066
			c-11.528,0-22.028-9.54-22.028-20.012V92.076c0-2.212-1.792-4-4-4s-4,1.788-4,4v371.988c0,14.924,14.032,28.012,30.028,28.012
			h280.12c14.98,0,25.852-11.78,25.852-28.012V92.076C356.038,89.864,354.246,88.076,352.038,88.076z"/>
	</g>
</g>
<g>
	<g>
		<path d="M372.038,128.076h-304c-2.208,0-4,1.788-4,4c0,2.212,1.792,4,4,4h304c2.208,0,4-1.788,4-4
			C376.038,129.864,374.246,128.076,372.038,128.076z"/>
	</g>
</g>
<g>
	<g>
		<path d="M36.038,128.076h-32c-2.208,0-4,1.788-4,4c0,2.212,1.792,4,4,4h32c2.208,0,4-1.788,4-4
			C40.038,129.864,38.246,128.076,36.038,128.076z"/>
	</g>
</g>
<g>
	<g>
		<path d="M100.038,152.064c-8.824,0-16,7.176-16,16v8.012c0,2.212,1.792,4,4,4s4-1.788,4-4v-8.012c0-4.336,3.664-8,8-8s8,3.664,8,8
			V452c0,4.336-3.664,8-8,8s-8-3.664-8-8V208.076c0-2.212-1.792-4-4-4s-4,1.788-4,4V452c0,8.824,7.176,16,16,16
			c8.824,0,16-7.172,16-16V168.064C116.038,159.24,108.862,152.064,100.038,152.064z"/>
	</g>
</g>
<g>
	<g>
		<path d="M188.038,152.064c-8.824,0-16,7.176-16,16v8.012c0,2.212,1.792,4,4,4c2.208,0,4-1.788,4-4v-8.012c0-4.336,3.664-8,8-8
			s8,3.664,8,8V452c0,4.336-3.664,8-8,8s-8-3.664-8-8V208.076c0-2.212-1.792-4-4-4c-2.208,0-4,1.788-4,4V452c0,8.824,7.176,16,16,16
			c8.824,0,16-7.172,16-16V168.064C204.038,159.24,196.862,152.064,188.038,152.064z"/>
	</g>
</g>
<g>
	<g>
		<path d="M276.038,152.064c-8.824,0-16,7.176-16,16v8.012c0,2.212,1.792,4,4,4s4-1.788,4-4v-8.012c0-4.336,3.664-8,8-8s8,3.664,8,8
			V452c0,4.336-3.664,8-8,8s-8-3.664-8-8V208.076c0-2.212-1.792-4-4-4s-4,1.788-4,4V452c0,8.824,7.176,16,16,16
			c8.824,0,16-7.172,16-16V168.064C292.038,159.24,284.862,152.064,276.038,152.064z"/>
	</g>
</g>
<g>
	<g>
		<path d="M337.81,56.168c-3.66-16.276-18.1-28.072-35.192-28.072c-8.424,0-16.504,2.952-22.92,8.248
			C269.122,14.38,246.638,0,221.994,0c-22.772,0-43.828,12.264-55.248,31.712c-9.016-9.764-21.768-15.448-35.196-15.448
			c-15.352,0-29.788,7.472-38.748,19.788c-6.384-5.16-14.236-7.952-22.568-7.952c-16.832,0-31.368,11.784-35.116,27.908
			C16.634,57.552,2.066,73.092,2.066,91.968c0,2.212,1.792,4,4,4s4-1.788,4-4c0-15.488,12.6-28.084,27.948-28.088
			c2.116,0.168,4.136-1.364,4.416-3.448c1.856-13.872,13.808-24.328,27.8-24.328c7.784,0,15.036,3.14,20.416,8.848
			c0.868,0.92,2.104,1.396,3.372,1.228c1.252-0.144,2.364-0.876,3-1.964c7.132-12.304,20.36-19.944,34.524-19.944
			c12.956,0,25.16,6.356,32.648,16.996c0.82,1.168,2.204,1.828,3.632,1.684c1.424-0.128,2.668-1.008,3.268-2.308
			c9.152-19.824,29.132-32.632,50.896-32.632c23.332,0,44.456,14.74,52.56,36.676c0.492,1.328,1.648,2.304,3.044,2.552
			c1.408,0.252,2.82-0.252,3.744-1.328c5.356-6.228,13.112-9.8,21.28-9.8c14.44,0,26.448,10.816,27.932,25.16
			c0.116,1.152,0.728,2.196,1.676,2.864c0.948,0.66,2.136,0.88,3.26,0.608c2.292-0.568,4.556-0.852,6.732-0.852
			c15.484,0,28.084,12.596,28.084,28.084c0,2.212,1.792,4,4,4c2.212,0,4-1.792,4.008-4.012
			C378.306,70.616,359.674,53.364,337.81,56.168z"/>
	</g>
</g>
<g>
	<g>
		<path d="M372.034,212.38c-9.5,0-14,2.352-17.972,4.432c-3.608,1.888-6.728,3.52-14.264,3.52c-7.696,0-11.656-1.704-16.244-3.676
			c-4.716-2.028-10.06-4.324-19.404-4.324c-9.024,0-13.612,2.084-18.048,4.1c-3.772,1.712-7.332,3.336-14.328,3.78
			c-0.232,0.016-0.46,0.048-0.68,0.104c-6.292-0.136-9.388-1.688-12.952-3.472c-4.228-2.116-9.028-4.516-18.624-4.516
			c-9.456,0-14.22,2.344-18.424,4.412c-3.916,1.924-7.3,3.588-14.892,3.588c-7.608,0-11.084-1.672-15.108-3.604
			c-4.288-2.06-9.148-4.396-18.58-4.396c-9.42,0-14.328,2.332-18.656,4.388c-4.08,1.936-7.604,3.612-15.22,3.612
			c-7.624,0-11.172-1.676-15.284-3.616c-4.348-2.056-9.28-4.384-18.692-4.384s-14.356,2.328-18.716,4.384
			c-4.124,1.94-7.684,3.616-15.308,3.616c-7.628,0-11.192-1.676-15.324-3.62c-4.368-2.052-9.316-4.38-18.728-4.38
			c-9.412,0-14.368,2.328-18.736,4.38c-3.532,1.66-6.584,3.092-12.104,3.508c-2.2,0.164-3.856,2.084-3.688,4.288
			c0.164,2.196,2.044,3.848,4.288,3.688c6.992-0.524,11.196-2.5,14.908-4.244c4.132-1.94,7.704-3.62,15.332-3.62
			c7.628,0,11.192,1.676,15.324,3.62c4.368,2.052,9.316,4.38,18.728,4.38c9.412,0,14.356-2.328,18.716-4.384
			c4.124-1.94,7.684-3.616,15.308-3.616c7.616,0,11.168,1.676,15.276,3.616c4.352,2.056,9.284,4.384,18.7,4.384
			c9.42,0,14.328-2.332,18.656-4.388c4.08-1.936,7.604-3.612,15.22-3.612c7.612,0,11.088,1.672,15.116,3.604
			c4.288,2.06,9.148,4.396,18.576,4.396c9.452,0,14.216-2.344,18.42-4.412c3.916-1.924,7.3-3.588,14.896-3.588
			c7.708,0,11.108,1.704,15.044,3.672c4.052,2.028,8.648,4.328,17.468,4.328c0.428,0,0.836-0.072,1.224-0.204
			c7.848-0.636,12.252-2.64,16.16-4.412c3.996-1.816,7.448-3.388,14.736-3.388c7.696,0,11.656,1.704,16.244,3.676
			c4.716,2.028,10.06,4.324,19.404,4.324c9.504,0,14.004-2.352,17.972-4.424c3.608-1.888,6.728-3.52,14.26-3.52c2.208,0,4-1.788,4-4
			S374.242,212.38,372.034,212.38z"/>
	</g>
</g>
<g>
	<g>
		<path d="M145.878,260.144c-2.208,0-4,1.788-4,4c0,1.996-1.62,3.616-3.616,3.616c-1.992,0-3.612-1.62-3.612-3.616
			c0-1.996,1.62-3.616,3.612-3.616c2.208,0,4-1.788,4-4c0-2.212-1.792-4-4-4c-6.404,0-11.612,5.212-11.612,11.616
			s5.208,11.616,11.612,11.616s11.616-5.212,11.616-11.616C149.878,261.932,148.086,260.144,145.878,260.144z"/>
	</g>
</g>
<g>
	<g>
		<path d="M245.978,280.208c-2.208,0-4,1.788-4,4c0,1.996-1.62,3.616-3.612,3.616s-3.616-1.62-3.616-3.616
			c0-1.992,1.62-3.612,3.616-3.612c2.208,0,4-1.788,4-4c0-2.212-1.792-4-4-4c-6.404,0-11.616,5.208-11.616,11.612
			s5.208,11.616,11.616,11.616c6.404,0,11.612-5.212,11.612-11.616C249.978,281.996,248.186,280.208,245.978,280.208z"/>
	</g>
</g>
<g>
	<g>
		<path d="M329.898,257.352c-2.208,0-4,1.788-4,4c0,1.992-1.62,3.612-3.616,3.612c-1.992,0-3.612-1.62-3.612-3.612
			c0-1.996,1.62-3.616,3.612-3.616c2.208,0,4-1.788,4-4c0-2.212-1.792-4-4-4c-6.404,0-11.612,5.208-11.612,11.616
			c0,6.4,5.208,11.612,11.612,11.612s11.616-5.212,11.616-11.612C333.898,259.14,332.106,257.352,329.898,257.352z"/>
	</g>
</g>
<g>
	<g>
		<path d="M61.974,296.02c-2.208,0-4,1.788-4,4c0,1.996-1.62,3.616-3.612,3.616s-3.616-1.62-3.616-3.616
			c0-1.992,1.62-3.612,3.616-3.612c2.208,0,4-1.788,4-4c0-2.212-1.792-4-4-4c-6.404,0-11.616,5.208-11.616,11.612
			s5.208,11.616,11.616,11.616c6.404,0,11.612-5.212,11.612-11.616C65.974,297.808,64.182,296.02,61.974,296.02z"/>
	</g>
</g>
<g>
	<g>
		<path d="M162.294,308.296c-2.208,0-4.02,1.804-4.02,4.016c0,2.212,1.812,4.02,4.02,4.02c1.64,0,3.128-1.012,3.732-2.54
			c0.188-0.468,0.284-0.972,0.284-1.48C166.31,310.1,164.502,308.296,162.294,308.296z"/>
	</g>
</g>
<g>
	<g>
		<path d="M66.17,247.924c-2.208,0-4.02,1.804-4.02,4.016c0,2.212,1.812,4.024,4.02,4.024c1.724,0,3.268-1.128,3.812-2.764
			c0.136-0.404,0.204-0.832,0.204-1.26C70.186,249.728,68.378,247.924,66.17,247.924z"/>
	</g>
</g>
<g>
	<g>
		<path d="M238.366,316.296c-2.208,0-4.02,1.804-4.02,4.016c0,2.212,1.812,4.02,4.02,4.02c1.636,0,3.124-1.012,3.732-2.54
			c0.188-0.468,0.284-0.972,0.284-1.48C242.382,318.1,240.574,316.296,238.366,316.296z"/>
	</g>
</g>
<g>
	<g>
		<path d="M222.066,244.064c-2.208,0-4.02,1.808-4.02,4.02c0,2.212,1.812,4.02,4.02,4.02c1.636,0,3.124-1.016,3.732-2.536
			c0.188-0.472,0.284-0.976,0.284-1.484C226.082,245.872,224.274,244.064,222.066,244.064z"/>
	</g>
</g>
<g>
	<g>
		<path d="M230.066,344.28c-2.208,0-4.02,1.808-4.02,4.02s1.812,4.016,4.02,4.016c1.516,0,2.916-0.872,3.596-2.228
			c0.276-0.552,0.42-1.168,0.42-1.788C234.082,346.088,232.274,344.28,230.066,344.28z"/>
	</g>
</g>
<g>
	<g>
		<path d="M45.982,336.048c-2.208,0-4.02,1.804-4.02,4.016c0,2.212,1.812,4.02,4.02,4.02c1.64,0,3.128-1.016,3.732-2.54
			c0.188-0.468,0.284-0.972,0.284-1.48C49.998,337.852,48.19,336.048,45.982,336.048z"/>
	</g>
</g>
<g>
	<g>
		<path d="M310.082,332.048c-2.208,0-4.016,1.804-4.016,4.016c0,2.212,1.808,4.02,4.016,4.02c1.636,0,3.128-1.016,3.736-2.54
			c0.188-0.468,0.284-0.972,0.284-1.48C314.102,333.852,312.29,332.048,310.082,332.048z"/>
	</g>
</g>
<g>
	<g>
		<path d="M333.998,300.128c-2.208,0-4.02,1.808-4.02,4.02s1.812,4.02,4.02,4.02c1.636,0,3.124-1.012,3.732-2.536
			c0.188-0.472,0.284-0.976,0.284-1.484C338.014,301.936,336.206,300.128,333.998,300.128z"/>
	</g>
</g>
<g>
	<g>
		<path d="M134.142,336.048c-2.208,0-4.02,1.804-4.02,4.016c0,2.212,1.812,4.02,4.02,4.02c1.64,0,3.132-1.016,3.736-2.54
			c0.188-0.468,0.284-0.972,0.284-1.48C138.162,337.852,136.35,336.048,134.142,336.048z"/>
	</g>
</g>
<g>
	<g>
		<path d="M418.066,132.076h-46.028c-2.208,0-4,1.788-4,4c0,2.212,1.792,4,4,4h46.028c48.208,0,85.972,38.768,85.972,88.264v111.732
			c0,49.348-37.764,88.004-85.972,88.004h-46.028c-2.208,0-4,1.788-4,4c0,2.212,1.792,4,4,4h46.028
			c52.696,0,93.972-42.172,93.972-96.004V228.34C512.038,174.36,470.762,132.076,418.066,132.076z"/>
	</g>
</g>
<g>
	<g>
		<path d="M418.066,172.076h-46.028c-2.208,0-4,1.788-4,4c0,2.212,1.792,4,4,4h46.028c25.78,0,45.972,21.2,45.972,48.264v111.732
			c0,26.92-20.192,48.004-45.972,48.004h-46.028c-2.208,0-4,1.788-4,4c0,2.212,1.792,4,4,4h46.028
			c30.264,0,53.972-24.6,53.972-56.004V228.34C472.038,196.792,448.33,172.076,418.066,172.076z"/>
	</g>
</g>
</svg>